<svg width="41" height="40" viewBox="0 0 41 40" fill="none" xmlns="http://www.w3.org/2000/svg">
<mask id="mask0_516_1563" style="mask-type:alpha" maskUnits="userSpaceOnUse" x="0" y="0" width="41" height="40">
<rect x="0.5" width="40" height="40" fill="#D9D9D9"/>
</mask>
<g mask="url(#mask0_516_1563)">
<path d="M14.0554 33.8888H26.9446L28.8333 26.3888H12.1667L14.0554 33.8888ZM14.0554 36.6667C13.426 36.6667 12.8632 36.4718 12.3671 36.0821C11.871 35.6927 11.5403 35.1885 11.375 34.5696L9.30542 26.3888H31.6946L29.625 34.5696C29.4597 35.1885 29.129 35.6927 28.6329 36.0821C28.1368 36.4718 27.574 36.6667 26.9446 36.6667H14.0554ZM8.27792 23.6113H32.7221V19.7221H8.27792V23.6113ZM20.5279 13.3055C20.5279 10.7685 21.5464 8.49546 23.5833 6.48629C25.6203 4.47685 27.9165 3.42587 30.4721 3.33337C30.4165 5.66671 29.5324 7.7824 27.8196 9.68046C26.1065 11.5788 24.1296 12.7316 21.8888 13.1388V16.9446H35.5V23.6113C35.5 24.3752 35.2281 25.0291 34.6842 25.573C34.14 26.1168 33.486 26.3888 32.7221 26.3888H8.27792C7.51403 26.3888 6.86 26.1168 6.31583 25.573C5.77194 25.0291 5.5 24.3752 5.5 23.6113V16.9446H19.1113V13.1388C16.8704 12.7316 14.8982 11.5788 13.1946 9.68046C11.4907 7.7824 10.6018 5.66671 10.5279 3.33337C13.0835 3.42587 15.389 4.47212 17.4446 6.47213C19.5001 8.47213 20.5279 10.7499 20.5279 13.3055Z" fill="#22740B"/>
</g>
</svg>
