<svg width="22" height="22" viewBox="0 0 22 22" fill="none" xmlns="http://www.w3.org/2000/svg">
<path d="M15.1011 8.3129C15.4916 7.92237 15.4916 7.28921 15.1011 6.89868C14.7106 6.50816 14.0774 6.50816 13.6869 6.89868L15.1011 8.3129ZM6.89868 13.6869C6.50816 14.0774 6.50816 14.7106 6.89868 15.1011C7.28921 15.4916 7.92237 15.4916 8.3129 15.1011L6.89868 13.6869ZM13.6869 15.1011C14.0774 15.4916 14.7106 15.4916 15.1011 15.1011C15.4916 14.7106 15.4916 14.0774 15.1011 13.6869L13.6869 15.1011ZM8.3129 6.89868C7.92237 6.50816 7.28921 6.50816 6.89868 6.89868C6.50816 7.28921 6.50816 7.92237 6.89868 8.3129L8.3129 6.89868ZM19.5999 10.9999C19.5999 15.7496 15.7496 19.5999 10.9999 19.5999V21.5999C16.8541 21.5999 21.5999 16.8541 21.5999 10.9999H19.5999ZM10.9999 19.5999C6.25025 19.5999 2.3999 15.7496 2.3999 10.9999H0.399902C0.399902 16.8541 5.14568 21.5999 10.9999 21.5999V19.5999ZM2.3999 10.9999C2.3999 6.25025 6.25025 2.3999 10.9999 2.3999V0.399902C5.14568 0.399902 0.399902 5.14568 0.399902 10.9999H2.3999ZM10.9999 2.3999C15.7496 2.3999 19.5999 6.25025 19.5999 10.9999H21.5999C21.5999 5.14568 16.8541 0.399902 10.9999 0.399902V2.3999ZM13.6869 6.89868L10.2928 10.2928L11.707 11.707L15.1011 8.3129L13.6869 6.89868ZM10.2928 10.2928L6.89868 13.6869L8.3129 15.1011L11.707 11.707L10.2928 10.2928ZM15.1011 13.6869L11.707 10.2928L10.2928 11.707L13.6869 15.1011L15.1011 13.6869ZM11.707 10.2928L8.3129 6.89868L6.89868 8.3129L10.2928 11.707L11.707 10.2928Z" fill="#950202"/>
</svg>
