<svg width="24" height="21" viewBox="0 0 24 21" fill="none" xmlns="http://www.w3.org/2000/svg">
<path d="M4.5551 15.0557C2.60745 15.0557 1.02856 13.7274 1.02856 11.7798C1.02856 9.83214 2.60745 8.25326 4.5551 8.25326C4.68754 8.25326 4.81828 8.26056 4.94693 8.27478V8.25326H4.99544C4.96342 7.99653 4.94693 7.73498 4.94693 7.46958C4.94693 4.0071 7.75383 1.2002 11.2163 1.2002C13.561 1.2002 15.6051 2.48733 16.6805 4.39357C16.9433 4.35491 17.2122 4.33489 17.4857 4.33489C20.5154 4.33489 22.9714 6.79093 22.9714 9.8206C22.9714 12.3146 21.3071 14.2158 19.0286 14.8425M11.8269 19.8002V10.8002M11.8269 10.8002L8.22856 14.5119M11.8269 10.8002L15.4286 14.5119" stroke="#005C2D" stroke-width="2" stroke-linecap="round" stroke-linejoin="round"/>
</svg>
