<svg width="6" height="21" viewBox="0 0 6 21" fill="none" xmlns="http://www.w3.org/2000/svg">
<path d="M2.99961 5.6999C1.67413 5.6999 0.599609 4.62539 0.599609 3.2999C0.599609 1.97442 1.67413 0.899902 2.99961 0.899902C4.32509 0.899902 5.39961 1.97442 5.39961 3.2999C5.39961 4.62539 4.32509 5.6999 2.99961 5.6999Z" fill="#5B5B5B"/>
<path d="M2.99961 12.8999C1.67413 12.8999 0.599609 11.8254 0.599609 10.4999C0.599609 9.17442 1.67413 8.0999 2.99961 8.0999C4.32509 8.0999 5.39961 9.17442 5.39961 10.4999C5.39961 11.8254 4.32509 12.8999 2.99961 12.8999Z" fill="#5B5B5B"/>
<path d="M2.99961 20.0999C1.67413 20.0999 0.599609 19.0254 0.599609 17.6999C0.599609 16.3744 1.67413 15.2999 2.99961 15.2999C4.32509 15.2999 5.39961 16.3744 5.39961 17.6999C5.39961 19.0254 4.32509 20.0999 2.99961 20.0999Z" fill="#5B5B5B"/>
</svg>
